<svg width="152" height="174" xmlns="http://www.w3.org/2000/svg" xmlns:xlink="http://www.w3.org/1999/xlink" xml:space="preserve" overflow="hidden"><g transform="translate(-462 -398)"><g><path d="M538.869 557.109C505.163 557.109 477.981 530.007 477.981 496.4 477.981 462.793 505.163 435.691 538.869 435.691 572.575 435.691 599.757 462.793 599.757 496.4 599.757 530.007 572.575 557.109 538.869 557.109L538.869 557.109ZM590.406 443.496 596.93 436.992C599.322 434.39 599.322 430.488 596.713 427.886 594.32 425.501 590.189 425.284 587.579 427.669L580.186 435.257C569.748 428.319 557.788 423.983 545.393 423.116L545.393 414.009 564.964 414.009 564.964 401 512.774 401 512.774 414.009 532.345 414.009 532.345 422.899C497.77 425.934 469.935 452.603 465.586 487.077 461.237 521.551 481.46 554.291 514.296 565.782 547.132 577.273 583.448 564.698 601.931 535.211 620.415 505.723 615.196 467.563 590.406 443.496Z" fill="#000000" fill-rule="evenodd" fill-opacity="1"/><path d="M543 453C543 455.209 540.985 457 538.5 457 536.015 457 534 455.209 534 453 534 450.791 536.015 449 538.5 449 540.985 449 543 450.791 543 453Z" fill="#000000" fill-rule="evenodd" fill-opacity="1"/><path d="M543 539.5C543 541.986 540.985 544.001 538.5 544.001 536.015 544.001 534 541.986 534 539.5 534 537.015 536.015 535 538.5 535 540.985 535 543 537.015 543 539.5Z" fill="#000000" fill-rule="evenodd" fill-opacity="1"/><path d="M586 494C586 496.209 584.209 498 582 498 579.791 498 578 496.209 578 494 578 491.791 579.791 490 582 490 584.209 490 586 491.791 586 494Z" fill="#000000" fill-rule="evenodd" fill-opacity="1"/><path d="M500.001 494C500.001 496.209 497.986 498 495.5 498 493.015 498 491 496.209 491 494 491 491.791 493.015 490 495.5 490 497.986 490 500.001 491.791 500.001 494Z" fill="#000000" fill-rule="evenodd" fill-opacity="1"/><path d="M542.722 464 534 464 534 494.435C534 495.522 534.436 496.609 535.308 497.479L556.895 519 563 512.914 542.722 492.696 542.722 464Z" fill="#000000" fill-rule="evenodd" fill-opacity="1"/><path d="M537 463 537 491.636" stroke="#FFFFFF" stroke-width="16.0417" stroke-linecap="butt" stroke-linejoin="miter" stroke-miterlimit="8" stroke-opacity="1" fill="none" fill-rule="evenodd"/><path d="M0 0 20.5315 27.7671" stroke="#FF2600" stroke-width="9.16667" stroke-linecap="butt" stroke-linejoin="miter" stroke-miterlimit="8" stroke-opacity="1" fill="none" fill-rule="evenodd" transform="matrix(-1 0 0 1 557.032 469.5)"/></g></g></svg>