<svg width="98" height="96" xmlns="http://www.w3.org/2000/svg" xmlns:xlink="http://www.w3.org/1999/xlink" xml:space="preserve" overflow="hidden"><g transform="translate(-186 -84)"><g><g><g><g><path d="M237 117C237 118.105 236.105 119 235 119 233.895 119 233 118.105 233 117 233 115.895 233.895 115 235 115 236.105 115 237 115.895 237 117Z" fill="#000000" fill-rule="nonzero" fill-opacity="1"/><path d="M237 157C237 158.105 236.105 159 235 159 233.895 159 233 158.105 233 157 233 155.895 233.895 155 235 155 236.105 155 237 155.895 237 157Z" fill="#000000" fill-rule="nonzero" fill-opacity="1"/><path d="M257 136C257 137.105 256.105 138 255 138 253.895 138 253 137.105 253 136 253 134.895 253.895 134 255 134 256.105 134 257 134.895 257 136Z" fill="#000000" fill-rule="nonzero" fill-opacity="1"/><path d="M217 136C217 137.105 216.105 138 215 138 213.895 138 213 137.105 213 136 213 134.895 213.895 134 215 134 216.105 134 217 134.895 217 136Z" fill="#000000" fill-rule="nonzero" fill-opacity="1"/><path d="M237 122 233 122 233 136C233 136.5 233.2 137 233.6 137.4L243.5 147.3 246.3 144.5 237 135.2 237 122Z" fill="#000000" fill-rule="nonzero" fill-opacity="1"/><path d="M235 165C219.5 165 207 152.5 207 137 207 121.5 219.5 109 235 109 250.5 109 263 121.5 263 137 263 152.5 250.5 165 235 165L235 165ZM258.7 112.6 261.7 109.6C262.8 108.4 262.8 106.6 261.6 105.4 260.5 104.3 258.6 104.2 257.4 105.3L254 108.8C249.2 105.6 243.7 103.6 238 103.2L238 99 247 99 247 93 223 93 223 99 232 99 232 103.1C216.1 104.5 203.3 116.8 201.3 132.7 199.3 148.6 208.6 163.7 223.7 169 238.8 174.3 255.5 168.5 264 154.9 272.5 141.3 270.1 123.7 258.7 112.6Z" fill="#000000" fill-rule="nonzero" fill-opacity="1"/></g></g></g></g></g></svg>