<svg width="151" height="174" xmlns="http://www.w3.org/2000/svg" xmlns:xlink="http://www.w3.org/1999/xlink" xml:space="preserve" overflow="hidden"><g transform="translate(-160 -398)"><g><path d="M239 453C239 455.209 237.209 457 235 457 232.791 457 231 455.209 231 453 231 450.791 232.791 449 235 449 237.209 449 239 450.791 239 453Z" fill="#000000" fill-rule="evenodd" fill-opacity="1"/><path d="M239 539.5C239 541.986 237.209 544.001 235 544.001 232.791 544.001 231 541.986 231 539.5 231 537.015 232.791 535 235 535 237.209 535 239 537.015 239 539.5Z" fill="#000000" fill-rule="evenodd" fill-opacity="1"/><path d="M283 494C283 496.209 280.985 498 278.5 498 276.015 498 274 496.209 274 494 274 491.791 276.015 490 278.5 490 280.985 490 283 491.791 283 494Z" fill="#000000" fill-rule="evenodd" fill-opacity="1"/><path d="M196 494C196 496.209 193.985 498 191.5 498 189.015 498 187 496.209 187 494 187 491.791 189.015 490 191.5 490 193.985 490 196 491.791 196 494Z" fill="#000000" fill-rule="evenodd" fill-opacity="1"/><path d="M239.421 464 231 464 231 494.435C231 495.522 231.421 496.609 232.263 497.479L253.105 519 259 512.914 239.421 492.696 239.421 464Z" fill="#000000" fill-rule="evenodd" fill-opacity="1"/><path d="M234.869 557.109C201.163 557.109 173.981 530.007 173.981 496.4 173.981 462.793 201.163 435.691 234.869 435.691 268.575 435.691 295.757 462.793 295.757 496.4 295.757 530.007 268.575 557.109 234.869 557.109L234.869 557.109ZM286.406 443.496 292.93 436.992C295.322 434.39 295.322 430.488 292.713 427.886 290.32 425.501 286.189 425.284 283.579 427.669L276.186 435.257C265.748 428.319 253.788 423.983 241.393 423.116L241.393 414.009 260.964 414.009 260.964 401 208.774 401 208.774 414.009 228.345 414.009 228.345 422.899C193.77 425.934 165.935 452.603 161.586 487.077 157.237 521.551 177.46 554.291 210.296 565.782 243.132 577.273 279.448 564.698 297.931 535.211 316.415 505.723 311.196 467.563 286.406 443.496Z" fill="#000000" fill-rule="evenodd" fill-opacity="1"/><path d="M235.5 464.5 235.5 493.136" stroke="#FF2600" stroke-width="9.16667" stroke-linecap="butt" stroke-linejoin="miter" stroke-miterlimit="8" stroke-opacity="1" fill="none" fill-rule="evenodd"/></g></g></svg>